# xmcd
#
# Track frame offsets:
#	180
#	11508
#	21193
#	28858
#	41974
#	55435
#	63296
#	77653
#	87685
#	96256
#	107338
#	121201
#
# Disc length: 1764 seconds
# Revision: 0
# Processed by: cddbd v1.5.2PL0 Copyright (c) Steve Scherf et al.
# Submitted via: dBpowerAMP V12.0
#
DISCID=9a06e20c
DTITLE=LeRoy Mack McNees - Houndog Ramble
DYEAR=1996
DGENRE=Country
TTITLE0=Hound Dog Ramble
TTITLE1=Fireball Mail
TTITLE2=Poor Willie
TTITLE3=LeRoy's Ramble
TTITLE4=Silver Threads and Golden Needles
TTITLE5=Joy Bells
TTITLE6=Home Sweet Home
TTITLE7=The Year Clayton Delaney Died
TTITLE8=Buck's Run
TTITLE9=Foggy Mountain Rock
TTITLE10=Black Mountain (Rag) Blues
TTITLE11=Amazing Grace
EXTD=
EXTT0=
EXTT1=
EXTT2=
EXTT3=
EXTT4=
EXTT5=
EXTT6=
EXTT7=
EXTT8=
EXTT9=
EXTT10=
EXTT11=
PLAYORDER=
